<svg width="24" height="24" xmlns="http://www.w3.org/2000/svg" fill="none">
 <defs>
  <clipPath id="clip0">
   <rect width="24" height="24" fill="white" id="svg_1"/>
  </clipPath>
 </defs>
 <g>
  <title>Layer 1</title>
  <g clip-path="url(#clip0)" id="svg_2">
   <path fill="#bb99dd" d="m16,22l0,-3.87c0.0375,-0.4768 -0.0269,-0.9562 -0.189,-1.4062c-0.1621,-0.45 -0.4181,-0.8604 -0.751,-1.2038c3.14,-0.35 6.44,-1.54 6.44,-7c-0.0003,-1.39617 -0.5373,-2.7388 -1.5,-3.75c0.4559,-1.22149 0.4236,-2.57165 -0.09,-3.77c0,0 -1.18,-0.35 -3.91,1.48c-2.292,-0.62118 -4.708,-0.62118 -7,0c-2.73,-1.83 -3.91,-1.48 -3.91,-1.48c-0.51362,1.19835 -0.54586,2.54851 -0.09,3.77c-0.96987,1.0187 -1.50748,2.37346 -1.5,3.78c0,5.42 3.3,6.61 6.44,7c-0.329,0.34 -0.58274,0.7454 -0.74469,1.1899c-0.16196,0.4445 -0.2285,0.9182 -0.19531,1.3901l0,3.87m0,-3c-5,1.5 -5,-2.5 -7,-3l7,3z" stroke="#dbc9ed" stroke-width="2" stroke-linecap="round" stroke-linejoin="round" id="svg_3"/>
  </g>
 </g>
</svg>