<svg width="24" height="24" xmlns="http://www.w3.org/2000/svg" fill="none">

 <g>
  <title>Layer 1</title>
  <path fill="#bb99dd" id="svg_1" stroke-linejoin="round" stroke-linecap="round" stroke-width="2" stroke="#dbc9ed" d="m17,2l-10,0c-2.76142,0 -5,2.23858 -5,5l0,10c0,2.7614 2.23858,5 5,5l10,0c2.7614,0 5,-2.2386 5,-5l0,-10c0,-2.76142 -2.2386,-5 -5,-5z"/>
  <path fill="#bb99dd" id="svg_2" stroke-linejoin="round" stroke-linecap="round" stroke-width="2" stroke="#ffffff" d="m16,11.37c0.1234,0.8322 -0.0187,1.6822 -0.4062,2.429c-0.3875,0.7468 -1.0007,1.3524 -1.7522,1.7307c-0.7515,0.3782 -1.6032,0.5099 -2.4338,0.3762c-0.8307,-0.1336 -1.59804,-0.5258 -2.19296,-1.1207c-0.59492,-0.595 -0.98711,-1.3623 -1.12077,-2.193c-0.13367,-0.8307 -0.002,-1.6823 0.37626,-2.4338c0.37826,-0.75155 0.98386,-1.36466 1.73067,-1.75216c0.7468,-0.3875 1.5968,-0.52966 2.429,-0.40624c0.8489,0.12588 1.6349,0.52146 2.2417,1.1283c0.6068,0.60685 1.0024,1.3928 1.1283,2.2417z"/>
  <path id="svg_3" stroke-linejoin="round" stroke-linecap="round" stroke-width="2" stroke="#ffffff" d="m17.5,6.5l0.01,0"/>
 </g>
</svg>