<svg width="24" height="24" xmlns="http://www.w3.org/2000/svg" fill="none">

 <g>
  <title>Layer 1</title>
  <path fill="#bb99dd" id="svg_1" stroke-linejoin="round" stroke-linecap="round" stroke-width="2" stroke="#dbc9ed" d="m16,8c1.5913,0 3.1174,0.63214 4.2426,1.75736c1.1253,1.12524 1.7574,2.65134 1.7574,4.24264l0,7l-4,0l0,-7c0,-0.5304 -0.2107,-1.0391 -0.5858,-1.4142c-0.3751,-0.3751 -0.8838,-0.5858 -1.4142,-0.5858c-0.5304,0 -1.0391,0.2107 -1.4142,0.5858c-0.3751,0.3751 -0.5858,0.8838 -0.5858,1.4142l0,7l-4,0l0,-7c0,-1.5913 0.6321,-3.1174 1.7574,-4.24264c1.1252,-1.12522 2.6513,-1.75736 4.2426,-1.75736l0,0z"/>
  <path fill="#bb99dd" id="svg_2" stroke-linejoin="round" stroke-linecap="round" stroke-width="2" stroke="#dbc9ed" d="m6,9l-4,0l0,12l4,0l0,-12z"/>
  <path fill="#bb99dd" id="svg_3" stroke-linejoin="round" stroke-linecap="round" stroke-width="2" stroke="#dbc9ed" d="m4,6c1.10457,0 2,-0.89543 2,-2c0,-1.10457 -0.89543,-2 -2,-2c-1.10457,0 -2,0.89543 -2,2c0,1.10457 0.89543,2 2,2z"/>
 </g>
</svg>