<svg width="24" height="24" xmlns="http://www.w3.org/2000/svg" fill="none">
 <g>
  <title>Layer 1</title>
  <path fill="#bb99dd" d="m23,2.99998c-0.9576,0.67548 -2.0179,1.19211 -3.14,1.53001c-0.6023,-0.69249 -1.4027,-1.18331 -2.293,-1.40608c-0.8903,-0.22276 -1.8275,-0.16673 -2.6849,0.16053c-0.8574,0.32726 -1.5937,0.90995 -2.1091,1.66926c-0.5155,0.75932 -0.7853,1.65862 -0.773,2.57628l0,1c-1.7574,0.04557 -3.49873,-0.34418 -5.06899,-1.13455c-1.57027,-0.79037 -2.92069,-1.95681 -3.93101,-3.39545c0,0 -4,9.00002 5,13.00002c-2.05947,1.398 -4.51284,2.0989 -7,2c9,5 20,0 20,-11.50002c-0.0009,-0.27854 -0.0277,-0.5564 -0.08,-0.82999c1.0206,-1.00651 1.7408,-2.27729 2.08,-3.67001l0,0z" stroke="#dbc9ed" stroke-width="2" stroke-linecap="round" stroke-linejoin="round" id="svg_1"/>
 </g>

</svg>